# xmcd
#
# Track frame offsets:
#	182
#	11610
#	21995
#	31267
#	41492
#	53360
#	62625
#	72697
#	83587
#	94692
#	105340
#	115245
#	127770
#	139482
#	151715
#	163722
#	175635
#	188717
#	201317
#	212097
#	223140
#	235920
#	248705
#	260337
#	271252
#
# Disc length: 3760
#
# Revision: 2
# Processed by: cddbd v1.5.1PL0 Copyright (c) Steve Scherf et al.
# Submitted via: audiograbber 1.83.01
# Normalized: r1:DSETVAR1
#
DISCID=520eae19
DTITLE=Various Artist - Northern Soul's Diamonds and Pearls
DYEAR=1900
DGENRE=Northern Soul
TTITLE0=Rose St John and The Wonderettes - I Know the Meaning
TTITLE1=Elbie Paker - Please Keep Away From Me
TTITLE2=Billy Prophet - What Can I Do
TTITLE3=The Daisies - Cold Wave
TTITLE4=Ike and Tina Turner - Can't Chance A Breakup
TTITLE5=Vernon Greene - Look At Me, Look At Me
TTITLE6=The Magnificent 7 - She's Called A Woman
TTITLE7=The Checkmates - Kissin' Her and Cryin' for You
TTITLE8=Patrice Holloway - Love and Desire
TTITLE9=Clydie King - He Always Comes Back to Me
TTITLE10=Scotty Williams - In The Same Old Way (I Still Love You)
TTITLE11=Bobby Hill - To The Bitter End
TTITLE12=Sandra Phillips - World Without Sunshine
TTITLE13=The Enjoyables - Push a Little Harder
TTITLE14=Herman Hitson - Yes You Do
TTITLE15=Patrice Holloway - Stolen Hours
TTITLE16=Ernie Andrews - Fine Young Girl
TTITLE17=The Entertainers - Love in My Heart
TTITLE18=Kenny Ballard and The Fabulous Soul Brothers - I'm Losing You
TTITLE19=Homer Banks - 60 Minutes of Your Love
TTITLE20=Timmy Willis - Mr.Soul Satisfaction
TTITLE21=Clydie King - My Love Grows Deeper
TTITLE22=Chubby and The Turnpikes - I Didn't Try
TTITLE23=Timothy Wilson - (Hey Girl) Do You Love Me
TTITLE24=Little Anthony - It's Not the Same
EXTD=
EXTT0=
EXTT1=
EXTT2=
EXTT3=
EXTT4=
EXTT5=
EXTT6=
EXTT7=
EXTT8=
EXTT9=
EXTT10=
EXTT11=
EXTT12=
EXTT13=
EXTT14=
EXTT15=
EXTT16=
EXTT17=
EXTT18=
EXTT19=
EXTT20=
EXTT21=
EXTT22=
EXTT23=
EXTT24=
PLAYORDER=
